<?xml version="1.0" encoding="us-ascii" standalone="no"?><svg xmlns="http://www.w3.org/2000/svg" xmlns:xlink="http://www.w3.org/1999/xlink" contentStyleType="text/css" height="618px" preserveAspectRatio="none" style="width:902px;height:618px;background:#FFFFFF;" version="1.1" viewBox="0 0 902 618" width="902px" zoomAndPan="magnify"><defs/><g><text fill="#000000" font-family="sans-serif" font-size="14" font-weight="bold" lengthAdjust="spacing" textLength="389" x="249.5" y="24.9659">Evalify - Use Case Diagram: Question Bank Management</text><!--cluster Question Bank Management--><g id="cluster_Question Bank Management"><rect fill="none" height="505" rx="2.5" ry="2.5" style="stroke:#181818;stroke-width:1.0;" width="299" x="194" y="107.5679"/><text fill="#000000" font-family="sans-serif" font-size="14" font-weight="bold" lengthAdjust="spacing" textLength="198" x="244.5" y="124.5339">Question Bank Management</text></g><g id="elem_UC_ManageBank"><ellipse cx="343.6833" cy="414.6046" fill="#F1F1F1" rx="125.6833" ry="27.5367" style="stroke:#181818;stroke-width:0.5;"/><text fill="#000000" font-family="sans-serif" font-size="14" lengthAdjust="spacing" textLength="214" x="235.467" y="418.6132">Manage Question Banks (CRUD)</text></g><g id="elem_UC_ManageQuestions"><ellipse cx="343.5169" cy="322.6713" fill="#F1F1F1" rx="133.5169" ry="29.1034" style="stroke:#181818;stroke-width:0.5;"/><text fill="#000000" font-family="sans-serif" font-size="14" lengthAdjust="spacing" textLength="231" x="228.0169" y="326.1033">Manage Questions in Bank (CRUD)</text></g><g id="elem_UC_ShareBank"><ellipse cx="343.6639" cy="494.5793" fill="#F1F1F1" rx="67.6639" ry="17.0114" style="stroke:#181818;stroke-width:0.5;"/><text fill="#000000" font-family="sans-serif" font-size="14" lengthAdjust="spacing" textLength="76" x="302.6639" y="499.3123">Share Bank</text></g><g id="elem_UC_ImportQ"><ellipse cx="343.3341" cy="165.5347" fill="#F1F1F1" rx="85.3341" ry="19.4668" style="stroke:#181818;stroke-width:0.5;"/><text fill="#000000" font-family="sans-serif" font-size="14" lengthAdjust="spacing" textLength="118" x="281.3341" y="170.2677">Import Questions</text></g><g id="elem_UC_ExportQ"><ellipse cx="343.7105" cy="239.81" fill="#F1F1F1" rx="84.2105" ry="19.2421" style="stroke:#181818;stroke-width:0.5;"/><text fill="#000000" font-family="sans-serif" font-size="14" lengthAdjust="spacing" textLength="115" x="283.2105" y="244.543">Export Questions</text></g><g id="elem_UC_UseSharedQ"><ellipse cx="343.7311" cy="571.6141" fill="#F1F1F1" rx="113.2311" ry="25.0462" style="stroke:#181818;stroke-width:0.5;"/><text fill="#000000" font-family="sans-serif" font-size="14" lengthAdjust="spacing" textLength="186" x="247.7311" y="576.3471">Use Shared Bank Questions</text></g><!--entity Manager--><g id="elem_Manager"><ellipse cx="37.5" cy="291.5679" fill="#F1F1F1" rx="8" ry="8" style="stroke:#181818;stroke-width:0.5;"/><path d="M37.5,299.5679 L37.5,326.5679 M24.5,307.5679 L50.5,307.5679 M37.5,326.5679 L24.5,341.5679 M37.5,326.5679 L50.5,341.5679 " fill="none" style="stroke:#181818;stroke-width:0.5;"/><text fill="#000000" font-family="sans-serif" font-size="14" lengthAdjust="spacing" textLength="61" x="7" y="358.0339">Manager</text></g><!--entity Professor--><g id="elem_Professor"><ellipse cx="37.5" cy="501.5679" fill="#F1F1F1" rx="8" ry="8" style="stroke:#181818;stroke-width:0.5;"/><path d="M37.5,509.5679 L37.5,536.5679 M24.5,517.5679 L50.5,517.5679 M37.5,536.5679 L24.5,551.5679 M37.5,536.5679 L50.5,551.5679 " fill="none" style="stroke:#181818;stroke-width:0.5;"/><text fill="#000000" font-family="sans-serif" font-size="14" lengthAdjust="spacing" textLength="63" x="6" y="568.0339">Professor</text></g><g id="elem_GMN18"><path d="M540,472.0679 L540,490.5679 L411.01,494.5679 L540,498.5679 L540,517.4799 A0,0 0 0 0 540,517.4799 L895,517.4799 A0,0 0 0 0 895,517.4799 L895,482.0679 L885,472.0679 L540,472.0679 A0,0 0 0 0 540,472.0679 " fill="#FEFFDD" style="stroke:#181818;stroke-width:0.5;"/><path d="M885,472.0679 L885,482.0679 L895,482.0679 L885,472.0679 " fill="#FEFFDD" style="stroke:#181818;stroke-width:0.5;"/><text fill="#000000" font-family="sans-serif" font-size="13" lengthAdjust="spacing" textLength="3" x="546" y="490.9649">&#160;</text><text fill="#000000" font-family="sans-serif" font-size="13" lengthAdjust="spacing" textLength="334" x="546" y="508.6709">' Professor uses questions from banks shared with them</text></g><g id="elem_GMN21"><path d="M211,46.0679 L211,91.4799 L476,91.4799 L476,56.0679 L466,46.0679 L211,46.0679 " fill="#FEFFDD" style="stroke:#181818;stroke-width:0.5;"/><path d="M466,46.0679 L466,56.0679 L476,56.0679 L466,46.0679 " fill="#FEFFDD" style="stroke:#181818;stroke-width:1.0;"/><text fill="#000000" font-family="sans-serif" font-size="13" lengthAdjust="spacing" textLength="241" x="217" y="64.9649">Includes defining various question types</text><text fill="#000000" font-family="sans-serif" font-size="13" lengthAdjust="spacing" textLength="239" x="217" y="82.6709">(MCQ, Coding, etc.) and associating files.</text></g><!--link Manager to UC_ManageBank--><g id="link_Manager_UC_ManageBank"><path d="M68.12,331.9579 C97.87,341.3579 145.05,356.1679 186,368.5679 C212.43,376.5679 241.42,385.1479 267.2,392.7079 " fill="none" id="Manager-UC_ManageBank" style="stroke:#181818;stroke-width:1.0;"/></g><!--link Manager to UC_ManageQuestions--><g id="link_Manager_UC_ManageQuestions"><path d="M68.2,322.5679 C101.3,322.5679 157.09,322.5679 209.75,322.5679 " fill="none" id="Manager-UC_ManageQuestions" style="stroke:#181818;stroke-width:1.0;"/></g><!--link Manager to UC_ShareBank--><g id="link_Manager_UC_ShareBank"><path d="M68.2,359.4779 C95.52,390.8879 138.83,434.7579 186,459.5679 C215.08,474.8579 250.6,483.4979 280.45,488.3579 " fill="none" id="Manager-UC_ShareBank" style="stroke:#181818;stroke-width:1.0;"/></g><!--link Manager to UC_ImportQ--><g id="link_Manager_UC_ImportQ"><path d="M68.07,289.7179 C77.55,279.8979 88.35,269.4079 99,260.5679 C134.76,230.8879 143.38,221.0979 186,202.5679 C213.27,190.7179 244.93,182.3179 272.62,176.5579 " fill="none" id="Manager-UC_ImportQ" style="stroke:#181818;stroke-width:1.0;"/></g><!--link Manager to UC_ExportQ--><g id="link_Manager_UC_ExportQ"><path d="M68.27,308.5879 C77.94,304.3679 88.8,299.9579 99,296.5679 C158.32,276.8179 227.95,261.2579 277.52,251.4079 " fill="none" id="Manager-UC_ExportQ" style="stroke:#181818;stroke-width:1.0;"/></g><!--link UC_ShareBank to Professor--><g id="link_UC_ShareBank_Professor"><path d="M282.82,502.0279 C218.57,510.0579 124.8337,521.7737 74.9937,528.0037 " fill="none" id="UC_ShareBank-to-Professor" style="stroke:#181818;stroke-width:1.0;"/><polygon fill="#181818" points="69.04,528.7479,78.4666,531.6007,74.0014,528.1277,77.4744,523.6625,69.04,528.7479" style="stroke:#181818;stroke-width:1.0;"/><text fill="#000000" font-family="sans-serif" font-size="13" lengthAdjust="spacing" textLength="77" x="100" y="511.4649">(Shares with)</text></g><!--link Professor to UC_UseSharedQ--><g id="link_Professor_UC_UseSharedQ"><path d="M69.04,536.4879 C109.92,541.7279 184.34,551.2779 245.23,559.0879 " fill="none" id="Professor-UC_UseSharedQ" style="stroke:#181818;stroke-width:1.0;"/></g><!--link UC_ManageQuestions to GMN21--><g id="link_UC_ManageQuestions_GMN21"><path d="M217.9,312.6979 C183.13,303.4879 149.06,287.0279 127.5,258.0679 C98.04,218.4979 99.19,187.4679 127.5,147.0679 C147.3,118.7979 178.38,100.6779 210.86,89.0579 " fill="none" id="UC_ManageQuestions-GMN21" style="stroke:#181818;stroke-width:1.0;stroke-dasharray:7.0,7.0;"/></g><!--SRC=[VL9DRu8m6BxtLppXCatK7-1XXw473oPZYpUJfKA1Pj2wziNDBFllAnG4dEv2mljylHybION0-iGBcPunnyuAXDnzLf9dXfTBH9Mm9BN24rVls7B5Cr4AHOmL8YMGXf5PJaYa4N5DP8p7f4rBDUtViz6fi5ORnceULvdB3UwP1_XcG6L5NFSIU63SYiKaVDcjfW6unIvyyvmQ-KTf8TkiM-8BQ-ZmcdCZ6ar7RYhNGPlog0trGHtPrwCXTVrrc-hh8sfzZYOkyLt_qJY2noE0_J3MBXtp-TLERW7zl6Eq7t1SxsOPLxkssL3fiCV-vbXYqa0MdvBoAUiHxp4OWobDedrJEXsruspswc5Ww_PayN6vRMfqYKFpDgnVMfq6oaNfNG-Qo56yxTKEdFb6nKMLECj4f599bU74ZTHLdm4w7ns-LvDj6CqGwiInPX0KBwRWAd5NiJgMd6fnAWjX5-mN]--></g></svg>