<?xml version="1.0" encoding="us-ascii" standalone="no"?><svg xmlns="http://www.w3.org/2000/svg" xmlns:xlink="http://www.w3.org/1999/xlink" contentStyleType="text/css" height="481px" preserveAspectRatio="none" style="width:764px;height:481px;background:#FFFFFF;" version="1.1" viewBox="0 0 764 481" width="764px" zoomAndPan="magnify"><defs/><g><text fill="#000000" font-family="sans-serif" font-size="14" font-weight="bold" lengthAdjust="spacing" textLength="466" x="142" y="24.9659">Evalify - Use Case Diagram: System Administration &amp; Configuration</text><!--cluster System Administration & Configuration--><g id="cluster_System Administration &amp; Configuration"><rect fill="none" height="378" rx="2.5" ry="2.5" style="stroke:#181818;stroke-width:1.0;" width="325" x="143" y="47.0679"/><text fill="#000000" font-family="sans-serif" font-size="14" font-weight="bold" lengthAdjust="spacing" textLength="275" x="168" y="64.0339">System Administration &amp; Configuration</text></g><g id="elem_UC_ConfigDelete"><ellipse cx="305.6407" cy="198.2961" fill="#F1F1F1" rx="146.6407" ry="31.7281" style="stroke:#181818;stroke-width:0.5;"/><text fill="#000000" font-family="sans-serif" font-size="14" lengthAdjust="spacing" textLength="259" x="176.1407" y="201.728">Configure Deletion/Archiving Behavior</text></g><g id="elem_UC_ConfigBackup"><ellipse cx="305.4545" cy="108.0588" fill="#F1F1F1" rx="102.9545" ry="22.9909" style="stroke:#181818;stroke-width:0.5;"/><text fill="#000000" font-family="sans-serif" font-size="14" lengthAdjust="spacing" textLength="162" x="221.4545" y="112.7918">Configure Backup Policy</text></g><g id="elem_UC_ManageSettings"><ellipse cx="305.6411" cy="287.8961" fill="#F1F1F1" rx="104.6411" ry="23.3282" style="stroke:#181818;stroke-width:0.5;"/><text fill="#000000" font-family="sans-serif" font-size="14" lengthAdjust="spacing" textLength="166" x="219.6411" y="292.6291">Manage System Settings</text></g><g id="elem_UC_DoBackup"><ellipse cx="305.3737" cy="378.0427" fill="#F1F1F1" rx="142.8737" ry="30.9747" style="stroke:#181818;stroke-width:0.5;"/><text fill="#000000" font-family="sans-serif" font-size="14" lengthAdjust="spacing" textLength="251" x="179.8737" y="381.4746">System Performs Automated Backups</text></g><!--entity Admin--><g id="elem_Admin"><ellipse cx="30" cy="167.0679" fill="#F1F1F1" rx="8" ry="8" style="stroke:#181818;stroke-width:0.5;"/><path d="M30,175.0679 L30,202.0679 M17,183.0679 L43,183.0679 M30,202.0679 L17,217.0679 M30,202.0679 L43,217.0679 " fill="none" style="stroke:#181818;stroke-width:0.5;"/><text fill="#000000" font-family="sans-serif" font-size="14" lengthAdjust="spacing" textLength="44" x="8" y="233.5339">Admin</text></g><!--entity System--><g id="elem_System"><ellipse cx="30" cy="406.0679" fill="#F1F1F1" rx="8" ry="8" style="stroke:#181818;stroke-width:0.5;"/><path d="M30,414.0679 L30,441.0679 M17,422.0679 L43,422.0679 M30,441.0679 L17,456.0679 M30,441.0679 L43,456.0679 " fill="none" style="stroke:#181818;stroke-width:0.5;"/><text fill="#000000" font-family="sans-serif" font-size="14" lengthAdjust="spacing" textLength="48" x="6" y="472.5339">System</text></g><g id="elem_GMN14"><path d="M515,274.0679 L515,284.0679 L410.44,288.0679 L515,292.0679 L515,301.7739 A0,0 0 0 0 515,301.7739 L757,301.7739 A0,0 0 0 0 757,301.7739 L757,284.0679 L747,274.0679 L515,274.0679 A0,0 0 0 0 515,274.0679 " fill="#FEFFDD" style="stroke:#181818;stroke-width:0.5;"/><path d="M747,274.0679 L747,284.0679 L757,284.0679 L747,274.0679 " fill="#FEFFDD" style="stroke:#181818;stroke-width:0.5;"/><text fill="#000000" font-family="sans-serif" font-size="13" lengthAdjust="spacing" textLength="221" x="521" y="292.9649">Includes Auth config (LDAP/SSO), etc.</text></g><g id="elem_GMN17"><path d="M214,444.0679 L214,447.1179 L54.32,438.8579 L214,455.1179 L214,471.7739 A0,0 0 0 0 214,471.7739 L397,471.7739 A0,0 0 0 0 397,471.7739 L397,454.0679 L387,444.0679 L214,444.0679 A0,0 0 0 0 214,444.0679 " fill="#FEFFDD" style="stroke:#181818;stroke-width:0.5;"/><path d="M387,444.0679 L387,454.0679 L397,454.0679 L387,444.0679 " fill="#FEFFDD" style="stroke:#181818;stroke-width:0.5;"/><text fill="#000000" font-family="sans-serif" font-size="13" lengthAdjust="spacing" textLength="162" x="220" y="462.9649">Backups run on a schedule.</text></g><!--link Admin to UC_ConfigDelete--><g id="link_Admin_UC_ConfigDelete"><path d="M52.01,198.0679 C75.77,198.0679 116.67,198.0679 158.71,198.0679 " fill="none" id="Admin-UC_ConfigDelete" style="stroke:#181818;stroke-width:1.0;"/></g><!--link Admin to UC_ConfigBackup--><g id="link_Admin_UC_ConfigBackup"><path d="M52.07,187.5379 C61.76,182.7479 73.43,177.0479 84,172.0679 C106.5,161.4779 111.48,157.1379 135,149.0679 C164.93,138.7979 198.66,130.0879 228.12,123.3579 " fill="none" id="Admin-UC_ConfigBackup" style="stroke:#181818;stroke-width:1.0;"/></g><!--link Admin to UC_ManageSettings--><g id="link_Admin_UC_ManageSettings"><path d="M52.17,231.5879 C60.73,242.4079 71.54,253.3379 84,260.0679 C119.4,279.1779 162.54,287.3579 201.24,290.3579 " fill="none" id="Admin-UC_ManageSettings" style="stroke:#181818;stroke-width:1.0;"/></g><!--link System to UC_DoBackup--><g id="link_System_UC_DoBackup"><path d="M54,428.4579 C63.23,425.2079 74.03,421.6679 84,419.0679 C117.9,410.2079 155.22,402.5079 189.36,396.2479 " fill="none" id="System-UC_DoBackup" style="stroke:#181818;stroke-width:1.0;"/></g><!--link UC_DoBackup to UC_ConfigBackup--><g id="link_UC_DoBackup_UC_ConfigBackup"><path d="M185.45,361.1479 C166.59,353.8579 148.81,343.5679 135,329.0679 C105.21,297.7879 112.48,276.5179 117,233.5679 C121.02,195.3779 108.21,176.5679 135,149.0679 C153.48,130.0979 173.2468,120.6506 199.0168,114.6406 " fill="none" id="UC_DoBackup-to-UC_ConfigBackup" style="stroke:#181818;stroke-width:1.0;stroke-dasharray:7.0,7.0;"/><polygon fill="#181818" points="204.86,113.2779,195.1867,111.4266,199.9907,114.4135,197.0037,119.2175,204.86,113.2779" style="stroke:#181818;stroke-width:1.0;"/><text fill="#000000" font-family="sans-serif" font-size="13" lengthAdjust="spacing" textLength="41" x="85" y="248.4649">&#171;uses&#187;</text></g><!--SRC=[ZL8zQyCm4DtrAnuUIWjDifiGS9mEXPO6JEOYvBCjQaj5EWT2wN-lOyd1JJfq4PBUlOyxYJMtXAUZR7LrmW87JyZbiEoqh9tiKXGdpzGXApjjj6SdMLk3E-JMLBhkmrc8bYe6MpXTDunIEr81a8gj2_Iu3uf2d4kagGV_v5yc2Ru4q7jIvu39X0rPgQLpmIfpgj57RMfigP57RLq2wN78tqFnM4X_Ysob-kW_iRUjLgVVj03DQQ_Io9gcsHJ4F9ZwYHNGwNREYuGzkSgwpYFhsNQIgOps5ucTZQRVGenJmM9nqySj44bpu2gCY142UB6PxR7SN0iYnNezDE4t6mXZcU8ps-hM8SMpKMrVqjXT0pNguFvbb-rNHV7sy0XYjRoIYQdIQGvmlS7m1IIyQgZiMrgA7m00]--></g></svg>