<?xml version="1.0" encoding="us-ascii" standalone="no"?><svg xmlns="http://www.w3.org/2000/svg" xmlns:xlink="http://www.w3.org/1999/xlink" contentStyleType="text/css" height="628px" preserveAspectRatio="none" style="width:1227px;height:628px;background:#FFFFFF;" version="1.1" viewBox="0 0 1227 628" width="1227px" zoomAndPan="magnify"><defs/><g><text fill="#000000" font-family="sans-serif" font-size="14" font-weight="bold" lengthAdjust="spacing" textLength="373" x="420" y="24.9659">Evalify - Use Case Diagram: Exam Taking &amp; Proctoring</text><!--cluster Exam Taking & Proctoring--><g id="cluster_Exam Taking &amp; Proctoring"><rect fill="none" height="331" rx="2.5" ry="2.5" style="stroke:#181818;stroke-width:1.0;" width="847" x="374" y="228.4579"/><text fill="#000000" font-family="sans-serif" font-size="14" font-weight="bold" lengthAdjust="spacing" textLength="182" x="706.5" y="245.4239">Exam Taking &amp; Proctoring</text></g><g id="elem_UC_ViewAvailable"><ellipse cx="501.2037" cy="357.6987" fill="#F1F1F1" rx="99.2037" ry="22.2407" style="stroke:#181818;stroke-width:0.5;"/><text fill="#000000" font-family="sans-serif" font-size="14" lengthAdjust="spacing" textLength="153" x="421.7037" y="362.4316">View Available Quizzes</text></g><g id="elem_UC_TakeQuiz"><ellipse cx="501.1002" cy="283.4167" fill="#F1F1F1" rx="60.1002" ry="16.9587" style="stroke:#181818;stroke-width:0.5;"/><text fill="#000000" font-family="sans-serif" font-size="14" lengthAdjust="spacing" textLength="66" x="465.1002" y="288.1496">Take Quiz</text></g><g id="elem_UC_ResumeQuiz"><ellipse cx="1075.3468" cy="295.2273" fill="#F1F1F1" rx="129.3468" ry="28.2694" style="stroke:#181818;stroke-width:0.5;"/><text fill="#000000" font-family="sans-serif" font-size="14" lengthAdjust="spacing" textLength="222" x="963.7982" y="298.9285">Resume Quiz on Different Device</text></g><g id="elem_UC_ReviewAnswers"><ellipse cx="1075.4652" cy="386.4509" fill="#F1F1F1" rx="122.9652" ry="26.993" style="stroke:#181818;stroke-width:0.5;"/><text fill="#000000" font-family="sans-serif" font-size="14" lengthAdjust="spacing" textLength="208" x="969.7215" y="390.6876">Review Answers Before Submit</text></g><g id="elem_UC_MonitorViolations"><ellipse cx="501.0609" cy="518.5701" fill="#F1F1F1" rx="111.0609" ry="24.6122" style="stroke:#181818;stroke-width:0.5;"/><text fill="#000000" font-family="sans-serif" font-size="14" lengthAdjust="spacing" textLength="181" x="407.5609" y="523.3031">System Monitors Violations</text></g><g id="elem_UC_ViewViolations"><ellipse cx="501.0577" cy="436.3695" fill="#F1F1F1" rx="97.5577" ry="21.9115" style="stroke:#181818;stroke-width:0.5;"/><text fill="#000000" font-family="sans-serif" font-size="14" lengthAdjust="spacing" textLength="149" x="423.5577" y="441.1024">View Violation Reports</text></g><!--entity Student--><g id="elem_Student"><ellipse cx="36.5" cy="217.4579" fill="#F1F1F1" rx="8" ry="8" style="stroke:#181818;stroke-width:0.5;"/><path d="M36.5,225.4579 L36.5,252.4579 M23.5,233.4579 L49.5,233.4579 M36.5,252.4579 L23.5,267.4579 M36.5,252.4579 L49.5,267.4579 " fill="none" style="stroke:#181818;stroke-width:0.5;"/><text fill="#000000" font-family="sans-serif" font-size="14" lengthAdjust="spacing" textLength="53" x="10" y="283.9239">Student</text></g><!--entity Manager--><g id="elem_Manager"><ellipse cx="36.5" cy="389.4579" fill="#F1F1F1" rx="8" ry="8" style="stroke:#181818;stroke-width:0.5;"/><path d="M36.5,397.4579 L36.5,424.4579 M23.5,405.4579 L49.5,405.4579 M36.5,424.4579 L23.5,439.4579 M36.5,424.4579 L49.5,439.4579 " fill="none" style="stroke:#181818;stroke-width:0.5;"/><text fill="#000000" font-family="sans-serif" font-size="14" lengthAdjust="spacing" textLength="61" x="6" y="455.9239">Manager</text></g><!--entity System--><g id="elem_System"><ellipse cx="36.5" cy="503.4579" fill="#F1F1F1" rx="8" ry="8" style="stroke:#181818;stroke-width:0.5;"/><path d="M36.5,511.4579 L36.5,538.4579 M23.5,519.4579 L49.5,519.4579 M36.5,538.4579 L23.5,553.4579 M36.5,538.4579 L49.5,553.4579 " fill="none" style="stroke:#181818;stroke-width:0.5;"/><text fill="#000000" font-family="sans-serif" font-size="14" lengthAdjust="spacing" textLength="48" x="12.5" y="569.9239">System</text></g><g id="elem_GMN21"><path d="M973,575.9579 L973,580.2179 L595.26,531.4879 L973,588.2179 L973,621.3699 A0,0 0 0 0 973,621.3699 L1178,621.3699 A0,0 0 0 0 1178,621.3699 L1178,585.9579 L1168,575.9579 L973,575.9579 A0,0 0 0 0 973,575.9579 " fill="#FEFFDD" style="stroke:#181818;stroke-width:0.5;"/><path d="M1168,575.9579 L1168,585.9579 L1178,585.9579 L1168,575.9579 " fill="#FEFFDD" style="stroke:#181818;stroke-width:0.5;"/><text fill="#000000" font-family="sans-serif" font-size="13" lengthAdjust="spacing" textLength="181" x="979" y="594.8549">Logs events like tab switching,</text><text fill="#000000" font-family="sans-serif" font-size="13" lengthAdjust="spacing" textLength="109" x="979" y="612.5609">fullscreen exit, etc.</text></g><!--link Student to UC_ViewAvailable--><g id="link_Student_UC_ViewAvailable"><path d="M63.07,264.4279 C73.3,270.2179 85.39,276.3379 97,280.4579 C201.38,317.5079 327.65,337.9579 410.7,348.3079 " fill="none" id="Student-UC_ViewAvailable" style="stroke:#181818;stroke-width:1.0;"/></g><!--link Student to UC_TakeQuiz--><g id="link_Student_UC_TakeQuiz"><path d="M63.02,250.3879 C135.08,255.8379 341.38,271.4579 442.59,279.1179 " fill="none" id="Student-UC_TakeQuiz" style="stroke:#181818;stroke-width:1.0;"/></g><!--link Student to UC_ResumeQuiz--><g id="link_Student_UC_ResumeQuiz"><path d="M63.13,212.8979 C72.52,202.7279 84.05,192.9179 97,187.4579 C432.42,46.0679 568.16,80.2179 916,187.4579 C966.75,203.1079 1015.79,241.1779 1045.55,267.6579 " fill="none" id="Student-UC_ResumeQuiz" style="stroke:#181818;stroke-width:1.0;"/></g><!--link Student to UC_ReviewAnswers--><g id="link_Student_UC_ReviewAnswers"><path d="M63.13,242.6579 C73.58,240.5779 85.81,238.4879 97,237.4579 C212.52,226.8679 242.02,235.0679 358,237.4579 C482.08,240.0179 815.62,187.4779 916,260.4579 C947.05,283.0379 918.61,314.5579 946,341.4579 C957.47,352.7179 971.91,361.1779 986.94,367.5179 " fill="none" id="Student-UC_ReviewAnswers" style="stroke:#181818;stroke-width:1.0;"/></g><!--link System to UC_MonitorViolations--><g id="link_System_UC_MonitorViolations"><path d="M60.75,533.6579 C120.33,531.5879 281.47,526.0179 391.1,522.2279 " fill="none" id="System-UC_MonitorViolations" style="stroke:#181818;stroke-width:1.0;"/></g><!--link UC_MonitorViolations to UC_TakeQuiz--><g id="link_UC_MonitorViolations_UC_TakeQuiz"><path d="M395.89,510.4879 C266.77,496.6179 73.23,460.0779 146,367.9579 C216.69,278.4679 357.49,272.7022 438.41,277.3722 " fill="none" id="UC_MonitorViolations-to-UC_TakeQuiz" style="stroke:#181818;stroke-width:1.0;stroke-dasharray:7.0,7.0;"/><polygon fill="#181818" points="444.4,277.7179,435.6454,273.206,439.4083,277.4298,435.1845,281.1927,444.4,277.7179" style="stroke:#181818;stroke-width:1.0;"/><text fill="#000000" font-family="sans-serif" font-size="13" lengthAdjust="spacing" textLength="259" x="98" y="382.8549">&#171;extend&#187; ' Monitoring happens during quiz</text></g><!--link Manager to UC_ViewViolations--><g id="link_Manager_UC_ViewViolations"><path d="M67.14,421.4879 C133.92,423.7979 298.63,429.4879 404.52,433.1579 " fill="none" id="Manager-UC_ViewViolations" style="stroke:#181818;stroke-width:1.0;"/></g><!--link UC_TakeQuiz to UC_ResumeQuiz--><g id="link_UC_TakeQuiz_UC_ResumeQuiz"><path d="M560.84,284.6879 C651.15,286.5879 820.0913,290.1219 940.5213,292.6519 " fill="none" id="UC_TakeQuiz-to-UC_ResumeQuiz" style="stroke:#181818;stroke-width:1.0;stroke-dasharray:7.0,7.0;"/><polygon fill="#181818" points="946.52,292.7779,937.606,288.5898,941.5211,292.6729,937.438,296.588,946.52,292.7779" style="stroke:#181818;stroke-width:1.0;"/><text fill="#000000" font-family="sans-serif" font-size="13" lengthAdjust="spacing" textLength="203" x="677.5" y="283.3549">&#171;uses&#187; ' Requires server-side state</text></g><!--link UC_TakeQuiz to UC_ReviewAnswers--><g id="link_UC_TakeQuiz_UC_ReviewAnswers"><path d="M544.02,295.4079 C571.7,302.9979 608.81,312.6379 642,319.4579 C752.71,342.2079 874.844,360.3348 962.724,372.2048 " fill="none" id="UC_TakeQuiz-to-UC_ReviewAnswers" style="stroke:#181818;stroke-width:1.0;stroke-dasharray:7.0,7.0;"/><polygon fill="#181818" points="968.67,373.0079,960.2864,367.8392,963.715,372.3386,959.2156,375.7672,968.67,373.0079" style="stroke:#181818;stroke-width:1.0;"/><text fill="#000000" font-family="sans-serif" font-size="13" lengthAdjust="spacing" textLength="272" x="643" y="315.3549">&#171;include&#187; ' Usually included, unless linear quiz</text></g><!--SRC=[TLF1Zjem4BtxAvuuj1VW0rOhf7PtRrsfPSkUAbKccGIhZaqzam1RzTzh9m7CGYz8C- -zcNalHenOmbEdhQaEc675X0STVnwDheDkxl2qrms-wr_6rVY0hy4NuaCibB9K2SGZc7eZA4sWGentIkb4mOkq9JaPgsVjT4tXY1rOg54gIRIhumcJ_-sPu8y2MgOYdJLvDRJ3fquRgzTHzgqrRs_44sZ6wk5dGazWBek31_AHcHgfpabBuhOPQF0kHb1L5A85F59d2ZfA1zgrkEjFSxoZmFXCbG-4btRT63ah4sUavE8X3pnxPw9hnglnLgSmJyv6w0nSXNA2iAIj3t8HIgRxgzJuQJ2RNOTsYPrYkcnd4Rm7SeTgz3LWrnPkDJ5Vv8jnX_jxsWkvSh70nsD4wPLiz7PBKL2sVVaxNQF6TvPPo_QfVF1yM7Isqg-AcNA_Q4bnO206K-WepDYK11OjT7jAvhiVP5nXOpBzh1Mtsje3nbuvHUiiCSCQHpgCfpilDFwPV7Kpi3ZuYwyPrCN4ape-Qj5hyCv8iOaXJF73LQsrN0GY1zeRcOAacAj_]--></g></svg>