<?xml version="1.0" encoding="us-ascii" standalone="no"?><svg xmlns="http://www.w3.org/2000/svg" xmlns:xlink="http://www.w3.org/1999/xlink" contentStyleType="text/css" height="577px" preserveAspectRatio="none" style="width:645px;height:577px;background:#FFFFFF;" version="1.1" viewBox="0 0 645 577" width="645px" zoomAndPan="magnify"><defs/><g><text fill="#000000" font-family="sans-serif" font-size="14" font-weight="bold" lengthAdjust="spacing" textLength="442" x="94.5" y="24.9659">Evalify - Use Case Diagram: User Management &amp; Authentication</text><!--cluster User Management & Authentication--><g id="cluster_User Management &amp; Authentication"><rect fill="none" height="384" rx="2.5" ry="2.5" style="stroke:#181818;stroke-width:1.0;" width="517.5" x="121.5" y="187.5679"/><text fill="#000000" font-family="sans-serif" font-size="14" font-weight="bold" lengthAdjust="spacing" textLength="251" x="254.75" y="204.5339">User Management &amp; Authentication</text></g><g id="elem_UC_ManageUser"><ellipse cx="234.2398" cy="247.8159" fill="#F1F1F1" rx="96.7398" ry="21.748" style="stroke:#181818;stroke-width:0.5;"/><text fill="#000000" font-family="sans-serif" font-size="14" lengthAdjust="spacing" textLength="147" x="157.7398" y="252.5488">Manage Users (CRUD)</text></g><g id="elem_UC_AssignRole"><ellipse cx="234.2471" cy="321.7173" fill="#F1F1F1" rx="73.7471" ry="17.1494" style="stroke:#181818;stroke-width:0.5;"/><text fill="#000000" font-family="sans-serif" font-size="14" lengthAdjust="spacing" textLength="85" x="188.7471" y="326.4503">Assign Roles</text></g><g id="elem_UC_DefineUserType"><ellipse cx="233.8505" cy="393.338" fill="#F1F1F1" rx="86.8505" ry="19.7701" style="stroke:#181818;stroke-width:0.5;"/><text fill="#000000" font-family="sans-serif" font-size="14" lengthAdjust="spacing" textLength="122" x="169.8505" y="398.071">Define User Types</text></g><g id="elem_UC_Authenticate"><ellipse cx="234.0697" cy="465.7819" fill="#F1F1F1" rx="74.0697" ry="17.2139" style="stroke:#181818;stroke-width:0.5;"/><text fill="#000000" font-family="sans-serif" font-size="14" lengthAdjust="spacing" textLength="86" x="188.0697" y="470.5148">Authenticate</text></g><g id="elem_UC_ResetPassword"><ellipse cx="234.0574" cy="536.5794" fill="#F1F1F1" rx="80.5574" ry="18.5115" style="stroke:#181818;stroke-width:0.5;"/><text fill="#000000" font-family="sans-serif" font-size="14" lengthAdjust="spacing" textLength="105" x="178.5574" y="541.3124">Reset Password</text></g><g id="elem_UC_AuthExternal"><ellipse cx="513.1968" cy="304.5073" fill="#F1F1F1" rx="110.1968" ry="24.4394" style="stroke:#181818;stroke-width:0.5;"/><text fill="#000000" font-family="sans-serif" font-size="14" lengthAdjust="spacing" textLength="179" x="420.6968" y="309.2402">Authenticate via LDAP/SSO</text></g><!--entity Admin--><g id="elem_Admin"><ellipse cx="35.5" cy="253.5679" fill="#F1F1F1" rx="8" ry="8" style="stroke:#181818;stroke-width:0.5;"/><path d="M35.5,261.5679 L35.5,288.5679 M22.5,269.5679 L48.5,269.5679 M35.5,288.5679 L22.5,303.5679 M35.5,288.5679 L48.5,303.5679 " fill="none" style="stroke:#181818;stroke-width:0.5;"/><text fill="#000000" font-family="sans-serif" font-size="14" lengthAdjust="spacing" textLength="44" x="13.5" y="320.0339">Admin</text></g><!--entity User--><g id="elem_User"><ellipse cx="35.5" cy="473.5679" fill="#F1F1F1" rx="8" ry="8" style="stroke:#181818;stroke-width:0.5;"/><path d="M35.5,481.5679 L35.5,508.5679 M22.5,489.5679 L48.5,489.5679 M35.5,508.5679 L22.5,523.5679 M35.5,508.5679 L48.5,523.5679 " fill="none" style="stroke:#181818;stroke-width:0.5;"/><text fill="#000000" font-family="sans-serif" font-size="14" lengthAdjust="spacing" textLength="59" x="6" y="540.0339">All Users</text></g><!--entity System--><g id="elem_System"><ellipse cx="513" cy="101.5679" fill="#F1F1F1" rx="8" ry="8" style="stroke:#181818;stroke-width:0.5;"/><path d="M513,109.5679 L513,136.5679 M500,117.5679 L526,117.5679 M513,136.5679 L500,151.5679 M513,136.5679 L526,151.5679 " fill="none" style="stroke:#181818;stroke-width:0.5;"/><text fill="#000000" font-family="sans-serif" font-size="14" lengthAdjust="spacing" textLength="48" x="489" y="168.0339">System</text></g><g id="elem_GMN19"><path d="M147.5,126.0679 L147.5,171.4799 L320.5,171.4799 L320.5,136.0679 L310.5,126.0679 L147.5,126.0679 " fill="#FEFFDD" style="stroke:#181818;stroke-width:0.5;"/><path d="M310.5,126.0679 L310.5,136.0679 L320.5,136.0679 L310.5,126.0679 " fill="#FEFFDD" style="stroke:#181818;stroke-width:1.0;"/><text fill="#000000" font-family="sans-serif" font-size="13" lengthAdjust="spacing" textLength="129" x="153.5" y="144.9649">Includes Create, View,</text><text fill="#000000" font-family="sans-serif" font-size="13" lengthAdjust="spacing" textLength="152" x="153.5" y="162.6709">Update, Deactivate users.</text></g><g id="elem_GMN22"><path d="M126,46.0679 L126,91.4799 L342,91.4799 L342,56.0679 L332,46.0679 L126,46.0679 " fill="#FEFFDD" style="stroke:#181818;stroke-width:0.5;"/><path d="M332,46.0679 L332,56.0679 L342,56.0679 L332,46.0679 " fill="#FEFFDD" style="stroke:#181818;stroke-width:1.0;"/><text fill="#000000" font-family="sans-serif" font-size="13" lengthAdjust="spacing" textLength="192" x="132" y="64.9649">Can be via Username/Password,</text><text fill="#000000" font-family="sans-serif" font-size="13" lengthAdjust="spacing" textLength="81" x="132" y="82.6709">LDAP, or SSO.</text></g><!--link Admin to UC_ManageUser--><g id="link_Admin_UC_ManageUser"><path d="M57.53,280.6079 C81.88,276.0179 123.34,268.2179 159.85,261.3379 " fill="none" id="Admin-UC_ManageUser" style="stroke:#181818;stroke-width:1.0;"/></g><!--link Admin to UC_AssignRole--><g id="link_Admin_UC_AssignRole"><path d="M57.53,288.5279 C85.65,293.8179 136.56,303.4079 176.33,310.8979 " fill="none" id="Admin-UC_AssignRole" style="stroke:#181818;stroke-width:1.0;"/></g><!--link Admin to UC_DefineUserType--><g id="link_Admin_UC_DefineUserType"><path d="M57.62,308.8979 C72.02,324.1679 92.28,343.2379 113.5,355.5679 C131.29,365.9079 152.23,373.7879 171.57,379.6179 " fill="none" id="Admin-UC_DefineUserType" style="stroke:#181818;stroke-width:1.0;"/></g><!--link User to UC_Authenticate--><g id="link_User_UC_Authenticate"><path d="M65.07,498.8979 C94.34,493.0879 140.62,483.9079 177.18,476.6479 " fill="none" id="User-UC_Authenticate" style="stroke:#181818;stroke-width:1.0;"/></g><!--link User to UC_ResetPassword--><g id="link_User_UC_ResetPassword"><path d="M65.07,509.2179 C91.9,513.5879 133,520.2779 167.82,525.9579 " fill="none" id="User-UC_ResetPassword" style="stroke:#181818;stroke-width:1.0;"/></g><!--reverse link UC_Authenticate to UC_AuthExternal--><g id="link_UC_Authenticate_UC_AuthExternal"><path d="M301.4953,447.8539 C320.1253,442.2039 323.94,439.8979 342,430.5679 C397.16,402.0679 453.58,356.2879 485.55,328.4579 " fill="none" id="UC_Authenticate-backto-UC_AuthExternal" style="stroke:#181818;stroke-width:1.0;"/><polygon fill="none" points="284.27,453.0779,303.2366,453.5957,299.7539,442.1122,284.27,453.0779" style="stroke:#181818;stroke-width:1.0;"/></g><!--link UC_AuthExternal to System--><g id="link_UC_AuthExternal_System"><path d="M513,279.9279 C513,251.7779 513,211.3379 513,178.1179 " fill="none" id="UC_AuthExternal-to-System" style="stroke:#181818;stroke-width:1.0;stroke-dasharray:7.0,7.0;"/><polygon fill="#181818" points="513,172.1179,509,181.1179,513,177.1179,517,181.1179,513,172.1179" style="stroke:#181818;stroke-width:1.0;"/><text fill="#000000" font-family="sans-serif" font-size="13" lengthAdjust="spacing" textLength="127" x="437" y="231.4649">Uses external system</text></g><!--link Admin to GMN19--><g id="link_Admin_GMN19"><path d="M57.8,260.3279 C72.43,244.5979 92.88,224.3579 113.5,209.5679 C134.13,194.7679 158.86,181.5179 180.45,171.1779 " fill="none" id="Admin-GMN19" style="stroke:#181818;stroke-width:1.0;stroke-dasharray:7.0,7.0;"/></g><!--link UC_Authenticate to GMN22--><g id="link_UC_Authenticate_GMN22"><path d="M163.38,460.2379 C133.88,453.8079 103.25,440.4379 89.25,413.0679 C60.2,356.2879 60.2,182.8479 89.25,126.0679 C97.25,110.4179 110.53,99.0079 125.87,90.6979 " fill="none" id="UC_Authenticate-GMN22" style="stroke:#181818;stroke-width:1.0;stroke-dasharray:7.0,7.0;"/></g><!--SRC=[XLFBQiCm4BphAnOVIWjvt4Cf63k7Gaj2tFHKAAgzTWIo52GvQMZxxzN3JXH3wSL8ixEp3uqDCnnXUQ2SrIUOmbOZPDH-SaORHTk5GnGyKq4RR54Ok86qCpjxOYKrJ0f2EDO6Z0J5cfs1YYaiGu2MHYf8gvQ9_foad7j5dG3L_jH7YfCss1BYagbeR5F9VvKJ-280dSRIDPm4Pb27ssoppUz2aUmzX7orA27LcZK2DfAZ7fW1Sr3CpB5c8aZ3osb_eOU0mnry9Nvf5S_Y4HPpDwZHm9fgVPIg6jWU7S2_fE70A3pbwNfU5AkuplBJe1AKanz2_0l0T3fQHGn7SyVmQ3xYDz1dnCD4-7NRPCI4- -zB-hd7qHrc3xqVmFjF0muHtTj4IAiL32VhO37BVHGbxohBpnJQOXDuPNYSm9lOxYj_pz6wZHrS8vtpoIm8VKXZPEkKnkqkxDyWu2FisKqfQ8lpOJmdxPO_0UVWOZKZlm00]--></g></svg>