<?xml version="1.0" encoding="us-ascii" standalone="no"?><svg xmlns="http://www.w3.org/2000/svg" xmlns:xlink="http://www.w3.org/1999/xlink" contentStyleType="text/css" height="886px" preserveAspectRatio="none" style="width:518px;height:886px;background:#FFFFFF;" version="1.1" viewBox="0 0 518 886" width="518px" zoomAndPan="magnify"><defs/><g><text fill="#000000" font-family="sans-serif" font-size="14" font-weight="bold" lengthAdjust="spacing" textLength="490" x="10" y="24.9659">Evalify - Use Case Diagram: Course &amp; Academic Structure Management</text><!--cluster Course & Academic Structure--><g id="cluster_Course &amp; Academic Structure"><rect fill="none" height="671" rx="2.5" ry="2.5" style="stroke:#181818;stroke-width:1.0;" width="285" x="215" y="107.5679"/><text fill="#000000" font-family="sans-serif" font-size="14" font-weight="bold" lengthAdjust="spacing" textLength="203" x="256" y="124.5339">Course &amp; Academic Structure</text></g><g id="elem_UC_ManageSemester"><ellipse cx="357.6968" cy="647.5073" fill="#F1F1F1" rx="110.1968" ry="24.4394" style="stroke:#181818;stroke-width:0.5;"/><text fill="#000000" font-family="sans-serif" font-size="14" lengthAdjust="spacing" textLength="179" x="265.1968" y="652.2402">Manage Semesters (CRUD)</text></g><g id="elem_UC_ManageCourse"><ellipse cx="357.3751" cy="564.6429" fill="#F1F1F1" rx="103.3751" ry="23.075" style="stroke:#181818;stroke-width:0.5;"/><text fill="#000000" font-family="sans-serif" font-size="14" lengthAdjust="spacing" textLength="163" x="272.8751" y="569.3759">Manage Courses (CRUD)</text></g><g id="elem_UC_ManageClass"><ellipse cx="357.6716" cy="325.4022" fill="#F1F1F1" rx="117.1716" ry="25.8343" style="stroke:#181818;stroke-width:0.5;"/><text fill="#000000" font-family="sans-serif" font-size="14" lengthAdjust="spacing" textLength="195" x="257.1988" y="330.1251">Manage Classes/Labs (CRUD)</text></g><g id="elem_UC_AssignManager"><ellipse cx="357.6411" cy="410.3961" fill="#F1F1F1" rx="104.6411" ry="23.3282" style="stroke:#181818;stroke-width:0.5;"/><text fill="#000000" font-family="sans-serif" font-size="14" lengthAdjust="spacing" textLength="166" x="271.6411" y="415.1291">Assign Manager to Class</text></g><g id="elem_UC_AssignProf"><ellipse cx="357.5951" cy="734.7869" fill="#F1F1F1" rx="126.5951" ry="27.719" style="stroke:#181818;stroke-width:0.5;"/><text fill="#000000" font-family="sans-serif" font-size="14" lengthAdjust="spacing" textLength="216" x="248.5494" y="738.7191">Assign Professor/Staff to Course</text></g><g id="elem_UC_EnrollStudent"><ellipse cx="357.345" cy="487.4369" fill="#F1F1F1" rx="79.845" ry="18.369" style="stroke:#181818;stroke-width:0.5;"/><text fill="#000000" font-family="sans-serif" font-size="14" lengthAdjust="spacing" textLength="103" x="302.845" y="492.1699">Enroll Students</text></g><g id="elem_UC_ArchiveCourse"><ellipse cx="357.639" cy="163.7957" fill="#F1F1F1" rx="79.139" ry="18.2278" style="stroke:#181818;stroke-width:0.5;"/><text fill="#000000" font-family="sans-serif" font-size="14" lengthAdjust="spacing" textLength="101" x="304.139" y="168.5287">Archive Course</text></g><g id="elem_UC_RetrieveCourse"><ellipse cx="357.4133" cy="240.6506" fill="#F1F1F1" rx="105.9133" ry="23.5827" style="stroke:#181818;stroke-width:0.5;"/><text fill="#000000" font-family="sans-serif" font-size="14" lengthAdjust="spacing" textLength="169" x="269.9133" y="245.3836">Retrieve Archived Course</text></g><!--entity Admin--><g id="elem_Admin"><ellipse cx="55.5" cy="263.5679" fill="#F1F1F1" rx="8" ry="8" style="stroke:#181818;stroke-width:0.5;"/><path d="M55.5,271.5679 L55.5,298.5679 M42.5,279.5679 L68.5,279.5679 M55.5,298.5679 L42.5,313.5679 M55.5,298.5679 L68.5,313.5679 " fill="none" style="stroke:#181818;stroke-width:0.5;"/><text fill="#000000" font-family="sans-serif" font-size="14" lengthAdjust="spacing" textLength="44" x="33.5" y="330.0339">Admin</text></g><!--entity Manager--><g id="elem_Manager"><ellipse cx="55.5" cy="571.5679" fill="#F1F1F1" rx="8" ry="8" style="stroke:#181818;stroke-width:0.5;"/><path d="M55.5,579.5679 L55.5,606.5679 M42.5,587.5679 L68.5,587.5679 M55.5,606.5679 L42.5,621.5679 M55.5,606.5679 L68.5,621.5679 " fill="none" style="stroke:#181818;stroke-width:0.5;"/><text fill="#000000" font-family="sans-serif" font-size="14" lengthAdjust="spacing" textLength="61" x="25" y="638.0339">Manager</text></g><!--entity Professor--><g id="elem_Professor"><ellipse cx="55.5" cy="697.5679" fill="#F1F1F1" rx="8" ry="8" style="stroke:#181818;stroke-width:0.5;"/><path d="M55.5,705.5679 L55.5,732.5679 M42.5,713.5679 L68.5,713.5679 M55.5,732.5679 L42.5,747.5679 M55.5,732.5679 L68.5,747.5679 " fill="none" style="stroke:#181818;stroke-width:0.5;"/><text fill="#000000" font-family="sans-serif" font-size="14" lengthAdjust="spacing" textLength="63" x="24" y="764.0339">Professor</text></g><!--entity Staff--><g id="elem_Staff"><ellipse cx="55.5" cy="811.5679" fill="#F1F1F1" rx="8" ry="8" style="stroke:#181818;stroke-width:0.5;"/><path d="M55.5,819.5679 L55.5,846.5679 M42.5,827.5679 L68.5,827.5679 M55.5,846.5679 L42.5,861.5679 M55.5,846.5679 L68.5,861.5679 " fill="none" style="stroke:#181818;stroke-width:0.5;"/><text fill="#000000" font-family="sans-serif" font-size="14" lengthAdjust="spacing" textLength="31" x="40" y="878.0339">Staff</text></g><g id="elem_GMN25"><path d="M249.5,46.0679 L249.5,91.4799 L465.5,91.4799 L465.5,56.0679 L455.5,46.0679 L249.5,46.0679 " fill="#FEFFDD" style="stroke:#181818;stroke-width:0.5;"/><path d="M455.5,46.0679 L455.5,56.0679 L465.5,56.0679 L455.5,46.0679 " fill="#FEFFDD" style="stroke:#181818;stroke-width:1.0;"/><text fill="#000000" font-family="sans-serif" font-size="13" lengthAdjust="spacing" textLength="172" x="255.5" y="64.9649">Includes setting Course Type</text><text fill="#000000" font-family="sans-serif" font-size="13" lengthAdjust="spacing" textLength="195" x="255.5" y="82.6709">(Core, Elective, Micro-Credential).</text></g><!--link Manager to UC_ManageSemester--><g id="link_Manager_UC_ManageSemester"><path d="M86.09,607.0079 C127.48,613.2179 204.47,624.7679 265.75,633.9579 " fill="none" id="Manager-UC_ManageSemester" style="stroke:#181818;stroke-width:1.0;"/></g><!--link Manager to UC_ManageCourse--><g id="link_Manager_UC_ManageCourse"><path d="M86.09,598.8179 C127.77,593.5379 205.57,583.6879 267.06,575.8979 " fill="none" id="Manager-UC_ManageCourse" style="stroke:#181818;stroke-width:1.0;"/></g><!--link Manager to UC_AssignProf--><g id="link_Manager_UC_AssignProf"><path d="M86.26,622.5479 C115.87,641.7479 163.1,670.5779 207,689.5679 C228.39,698.8179 252.29,706.9379 274.58,713.6379 " fill="none" id="Manager-UC_AssignProf" style="stroke:#181818;stroke-width:1.0;"/></g><!--link Manager to UC_EnrollStudent--><g id="link_Manager_UC_EnrollStudent"><path d="M86.1,582.1879 C95.76,575.8979 106.67,569.1479 117,563.5679 C155.51,542.7579 165.55,537.6379 207,523.5679 C235.82,513.7879 268.62,505.5779 296.14,499.4779 " fill="none" id="Manager-UC_EnrollStudent" style="stroke:#181818;stroke-width:1.0;"/></g><!--link Admin to UC_ManageClass--><g id="link_Admin_UC_ManageClass"><path d="M77.6,296.7479 C113.34,300.4379 188.08,308.1679 251.2,314.6879 " fill="none" id="Admin-UC_ManageClass" style="stroke:#181818;stroke-width:1.0;"/></g><!--link Admin to UC_AssignManager--><g id="link_Admin_UC_AssignManager"><path d="M77.87,306.6379 C106.56,322.4679 159.41,350.3579 207,368.5679 C232.05,378.1579 260.22,386.6279 285.29,393.4179 " fill="none" id="Admin-UC_AssignManager" style="stroke:#181818;stroke-width:1.0;"/></g><!--link Admin to UC_ArchiveCourse--><g id="link_Admin_UC_ArchiveCourse"><path d="M77.6,276.2079 C88.9,266.7979 103.28,255.4779 117,246.5679 C154.85,221.9879 164.75,215.4179 207,199.5679 C235.37,188.9279 267.97,180.6479 295.48,174.7279 " fill="none" id="Admin-UC_ArchiveCourse" style="stroke:#181818;stroke-width:1.0;"/></g><!--link Admin to UC_RetrieveCourse--><g id="link_Admin_UC_RetrieveCourse"><path d="M77.68,288.8679 C89.25,285.8679 103.85,282.2679 117,279.5679 C166.73,269.3679 222.71,260.1379 268.03,253.2079 " fill="none" id="Admin-UC_RetrieveCourse" style="stroke:#181818;stroke-width:1.0;"/></g><!--link Professor to UC_AssignProf--><g id="link_Professor_UC_AssignProf"><path d="M87.2,729.1779 C121.24,729.8579 178.37,731.0079 231.27,732.0679 " fill="none" id="Professor-UC_AssignProf" style="stroke:#181818;stroke-width:1.0;"/><text fill="#000000" font-family="sans-serif" font-size="13" lengthAdjust="spacing" textLength="80" x="118" y="726.4649">(Assigned To)</text></g><!--link Staff to UC_AssignProf--><g id="link_Staff_UC_AssignProf"><path d="M71.38,837.2079 C110.81,823.0179 219.84,783.7679 291.08,758.1179 " fill="none" id="Staff-UC_AssignProf" style="stroke:#181818;stroke-width:1.0;"/><text fill="#000000" font-family="sans-serif" font-size="13" lengthAdjust="spacing" textLength="80" x="118" y="788.4649">(Assigned To)</text></g><!--link UC_ManageCourse to GMN25--><g id="link_UC_ManageCourse_GMN25"><path d="M254.62,561.7579 C214.42,554.9379 172.03,539.4479 147,506.0679 C99.13,442.2479 101.5,212.5979 147,147.0679 C170.52,113.1879 210.53,93.9079 249.39,82.9379 " fill="none" id="UC_ManageCourse-GMN25" style="stroke:#181818;stroke-width:1.0;stroke-dasharray:7.0,7.0;"/></g><!--SRC=[XLDDQyCm3BtxLuWUHWlBUk-jP3qCLXZzk0s6woYfmR67hHJAs7-V4ySbJhFj4YozzsJfAIP92c5puKgMLyZWw11oxZ_FabUMrol8JMDz_01hmGkifO0zsKPGOn6sNFCAQzJ4cCAIW0nOMPq92cbHa3IQCIx8M5WNjTJzESXi7xrPKw9p9iPxucN9MAldklBTpVveOGPV3A1nADgcPw4ox7rFZj0wcEUxu_DY1jp1CVy8S4GdXE6cQLd0faIAEozQllBJBygMC1IkdPELZZwqhdMKg0fmTEbUTtDisNdLwRlcqW8jRQZUQ6kKyjurXT_OxRQGxhF9RLQSvGN7jKFsteqTafNe-JsZ60aZtYk_6OlpPzd4SgR0Nff2Ws5J81sCTNzWMgxRop2VEfyWoTX3P3GNkstdhZzOmJn4tfo3MR2mldzfJ1j2E1aYKuF7Htvu_eiMoe_fm26Hr5LyjOVh9yAxdkV6uYDiLFicB_wqbSAQBBVOMYEvMZon7m00]--></g></svg>