<?xml version="1.0" encoding="us-ascii" standalone="no"?><svg xmlns="http://www.w3.org/2000/svg" xmlns:xlink="http://www.w3.org/1999/xlink" contentStyleType="text/css" height="480px" preserveAspectRatio="none" style="width:825px;height:480px;background:#FFFFFF;" version="1.1" viewBox="0 0 825 480" width="825px" zoomAndPan="magnify"><defs/><g><text fill="#000000" font-family="sans-serif" font-size="14" font-weight="bold" lengthAdjust="spacing" textLength="346" x="232.5" y="24.9659">Evalify - Use Case Diagram: Coding Exam Features</text><!--cluster Coding Exam Features--><g id="cluster_Coding Exam Features"><rect fill="none" height="288" rx="2.5" ry="2.5" style="stroke:#181818;stroke-width:1.0;" width="299" x="272" y="105.5679"/><text fill="#000000" font-family="sans-serif" font-size="14" font-weight="bold" lengthAdjust="spacing" textLength="155" x="344" y="122.5339">Coding Exam Features</text></g><g id="elem_UC_DefineAdvCodingQ"><ellipse cx="421.5169" cy="172.6713" fill="#F1F1F1" rx="133.5169" ry="29.1034" style="stroke:#181818;stroke-width:0.5;"/><text fill="#000000" font-family="sans-serif" font-size="14" lengthAdjust="spacing" textLength="231" x="306.0169" y="176.1033">Define Advanced Coding Question</text></g><g id="elem_UC_ConfigCodingExam"><ellipse cx="421.5097" cy="264.4699" fill="#F1F1F1" rx="127.5097" ry="27.9019" style="stroke:#181818;stroke-width:0.5;"/><text fill="#000000" font-family="sans-serif" font-size="14" lengthAdjust="spacing" textLength="218" x="311.6321" y="268.3252">Configure Coding Exam Settings</text></g><g id="elem_UC_TakeCodingExam"><ellipse cx="421.4273" cy="352.3534" fill="#F1F1F1" rx="111.9273" ry="24.7855" style="stroke:#181818;stroke-width:0.5;"/><text fill="#000000" font-family="sans-serif" font-size="14" lengthAdjust="spacing" textLength="183" x="326.9273" y="357.0863">Take Coding Exam with IDE</text></g><!--entity Professor--><g id="elem_Professor"><ellipse cx="117" cy="138.5679" fill="#F1F1F1" rx="8" ry="8" style="stroke:#181818;stroke-width:0.5;"/><path d="M117,146.5679 L117,173.5679 M104,154.5679 L130,154.5679 M117,173.5679 L104,188.5679 M117,173.5679 L130,188.5679 " fill="none" style="stroke:#181818;stroke-width:0.5;"/><text fill="#000000" font-family="sans-serif" font-size="14" lengthAdjust="spacing" textLength="63" x="85.5" y="205.0339">Professor</text></g><!--entity Student--><g id="elem_Student"><ellipse cx="117" cy="334.5679" fill="#F1F1F1" rx="8" ry="8" style="stroke:#181818;stroke-width:0.5;"/><path d="M117,342.5679 L117,369.5679 M104,350.5679 L130,350.5679 M117,369.5679 L104,384.5679 M117,369.5679 L130,384.5679 " fill="none" style="stroke:#181818;stroke-width:0.5;"/><text fill="#000000" font-family="sans-serif" font-size="14" lengthAdjust="spacing" textLength="53" x="90.5" y="401.0339">Student</text></g><g id="elem_Manage Questions in Bank"><ellipse cx="117.0609" cy="70.6801" fill="#F1F1F1" rx="111.0609" ry="24.6122" style="stroke:#181818;stroke-width:0.5;"/><text fill="#000000" font-family="sans-serif" font-size="14" lengthAdjust="spacing" textLength="181" x="23.5609" y="75.4131">Manage Questions in Bank</text></g><g id="elem_Configure Quiz Settings"><ellipse cx="117.0347" cy="267.4749" fill="#F1F1F1" rx="102.5347" ry="22.9069" style="stroke:#181818;stroke-width:0.5;"/><text fill="#000000" font-family="sans-serif" font-size="14" lengthAdjust="spacing" textLength="161" x="33.5347" y="272.2078">Configure Quiz Settings</text></g><g id="elem_Take Quiz"><ellipse cx="117.1002" cy="457.5267" fill="#F1F1F1" rx="60.1002" ry="16.9587" style="stroke:#181818;stroke-width:0.5;"/><text fill="#000000" font-family="sans-serif" font-size="14" lengthAdjust="spacing" textLength="66" x="81.1002" y="462.2596">Take Quiz</text></g><g id="elem_GMN17"><path d="M615,150.0679 L615,168.5679 L555.28,172.5679 L615,176.5679 L615,195.4799 A0,0 0 0 0 615,195.4799 L818,195.4799 A0,0 0 0 0 818,195.4799 L818,160.0679 L808,150.0679 L615,150.0679 A0,0 0 0 0 615,150.0679 " fill="#FEFFDD" style="stroke:#181818;stroke-width:0.5;"/><path d="M808,150.0679 L808,160.0679 L818,160.0679 L808,150.0679 " fill="#FEFFDD" style="stroke:#181818;stroke-width:0.5;"/><text fill="#000000" font-family="sans-serif" font-size="13" lengthAdjust="spacing" textLength="131" x="621" y="168.9649">Involves multiple files,</text><text fill="#000000" font-family="sans-serif" font-size="13" lengthAdjust="spacing" textLength="182" x="621" y="186.6709">complex structures, test cases.</text></g><g id="elem_GMN20"><path d="M645.5,338.5679 L645.5,348.5679 L533.69,352.5679 L645.5,356.5679 L645.5,366.2739 A0,0 0 0 0 645.5,366.2739 L787.5,366.2739 A0,0 0 0 0 787.5,366.2739 L787.5,348.5679 L777.5,338.5679 L645.5,338.5679 A0,0 0 0 0 645.5,338.5679 " fill="#FEFFDD" style="stroke:#181818;stroke-width:0.5;"/><path d="M777.5,338.5679 L777.5,348.5679 L787.5,348.5679 L777.5,338.5679 " fill="#FEFFDD" style="stroke:#181818;stroke-width:0.5;"/><text fill="#000000" font-family="sans-serif" font-size="13" lengthAdjust="spacing" textLength="121" x="651.5" y="357.4649">Uses integrated IDE.</text></g><!--link Professor to UC_DefineAdvCodingQ--><g id="link_Professor_UC_DefineAdvCodingQ"><path d="M148.67,169.8679 C181.64,170.1979 236.3,170.7379 288,171.2579 " fill="none" id="Professor-UC_DefineAdvCodingQ" style="stroke:#181818;stroke-width:1.0;"/></g><!--link Professor to UC_ConfigCodingExam--><g id="link_Professor_UC_ConfigCodingExam"><path d="M148.65,180.2279 C178.12,190.3979 223.96,205.9679 264,218.5679 C289.66,226.6379 317.83,235.0579 343.11,242.4479 " fill="none" id="Professor-UC_ConfigCodingExam" style="stroke:#181818;stroke-width:1.0;"/></g><!--link Student to UC_TakeCodingExam--><g id="link_Student_UC_TakeCodingExam"><path d="M143.53,364.4679 C180.42,362.8879 250.86,359.8579 311.47,357.2579 " fill="none" id="Student-UC_TakeCodingExam" style="stroke:#181818;stroke-width:1.0;"/></g><!--reverse link Manage Questions in Bank to UC_DefineAdvCodingQ--><g id="link_Manage Questions in Bank_UC_DefineAdvCodingQ"><path d="M195.9067,96.8386 C244.8167,113.3286 296.6,130.7879 348.3,148.2179 " fill="none" id="Manage Questions in Bank-backto-UC_DefineAdvCodingQ" style="stroke:#181818;stroke-width:1.0;"/><polygon fill="none" points="178.85,91.0879,193.9898,102.5241,197.8236,91.153,178.85,91.0879" style="stroke:#181818;stroke-width:1.0;"/></g><!--reverse link Configure Quiz Settings to UC_ConfigCodingExam--><g id="link_Configure Quiz Settings_UC_ConfigCodingExam"><path d="M237.5692,266.3844 C261.4292,266.1544 269.14,266.0679 293.94,265.8279 " fill="none" id="Configure Quiz Settings-backto-UC_ConfigCodingExam" style="stroke:#181818;stroke-width:1.0;"/><polygon fill="none" points="219.57,266.5579,237.627,272.3841,237.5113,260.3847,219.57,266.5579" style="stroke:#181818;stroke-width:1.0;"/></g><!--reverse link Take Quiz to UC_TakeCodingExam--><g id="link_Take Quiz_UC_TakeCodingExam"><path d="M175.5403,439.788 C196.4003,433.268 205.05,430.3879 228,422.5679 C273.78,406.9679 325.25,388.1879 363.44,374.0079 " fill="none" id="Take Quiz-backto-UC_TakeCodingExam" style="stroke:#181818;stroke-width:1.0;"/><polygon fill="none" points="158.36,445.1579,177.3303,445.5148,173.7504,434.0612,158.36,445.1579" style="stroke:#181818;stroke-width:1.0;"/></g><!--SRC=[TPFFJiCm3CRlUGgh5uR4zW0J5zY6j0CIqzWD2LcfsqLhav6uPGnuTvor-rykaP9y_jd-uh3XWc1IOs6oB-Z38X2CK9QnmTnZEOIHIutDORB14fu8kV8Kb2eeOs07tkHBXjHuqcoSLGerEmyltcKKWlFjVivLIfQLYZgqkUHCki09V2k0Af2EDIHZoembU4Xhj9hIVIspYaBCbW06M8pU6vcecllPAMBaR6PoOPyrCYTcsOGzeL4rYYWu9RpYwZpuq_0IfkF9FZWAJa9_bJgq3_r-Pu6NWglyhM7jzKK6TGFpDMaZZxR5Q0Iu34gqcCSQFrftWkeznpCw-1N0M7X4kxg5-vz_Akj2wzR3XcwsMvc0tj7OcHmT73sYhthgGZEk8XLtNDNRUHrvHynbxzOnjMCdyHqjm12cjdP5JG7Agc2pbcdBJ47X3jwiTgNiDn3OLtetStV0OW_4nmw3Q_nvVe7B5ub6Cid_O1bAcOI1-WC0]--></g></svg>