<?xml version="1.0" encoding="us-ascii" standalone="no"?><svg xmlns="http://www.w3.org/2000/svg" xmlns:xlink="http://www.w3.org/1999/xlink" contentStyleType="text/css" height="754px" preserveAspectRatio="none" style="width:960px;height:754px;background:#FFFFFF;" version="1.1" viewBox="0 0 960 754" width="960px" zoomAndPan="magnify"><defs/><g><text fill="#000000" font-family="sans-serif" font-size="14" font-weight="bold" lengthAdjust="spacing" textLength="400" x="273" y="24.9659">Evalify - Use Case Diagram: Quiz Creation &amp; Configuration</text><!--cluster Quiz Creation & Configuration--><g id="cluster_Quiz Creation &amp; Configuration"><rect fill="none" height="528" rx="2.5" ry="2.5" style="stroke:#181818;stroke-width:1.0;" width="838" x="116" y="157.7979"/><text fill="#000000" font-family="sans-serif" font-size="14" font-weight="bold" lengthAdjust="spacing" textLength="209" x="430.5" y="174.7639">Quiz Creation &amp; Configuration</text></g><g id="elem_UC_ManageQuiz"><ellipse cx="234.9545" cy="362.7888" fill="#F1F1F1" rx="102.9545" ry="22.9909" style="stroke:#181818;stroke-width:0.5;"/><text fill="#000000" font-family="sans-serif" font-size="14" lengthAdjust="spacing" textLength="162" x="150.9545" y="367.5218">Manage Quizzes (CRUD)</text></g><g id="elem_UC_ConfigQuiz"><ellipse cx="565.0347" cy="218.7049" fill="#F1F1F1" rx="102.5347" ry="22.9069" style="stroke:#181818;stroke-width:0.5;"/><text fill="#000000" font-family="sans-serif" font-size="14" lengthAdjust="spacing" textLength="161" x="481.5347" y="223.4378">Configure Quiz Settings</text></g><g id="elem_UC_ManageTags"><ellipse cx="234.8868" cy="649.8753" fill="#F1F1F1" rx="88.3868" ry="20.0774" style="stroke:#181818;stroke-width:0.5;"/><text fill="#000000" font-family="sans-serif" font-size="14" lengthAdjust="spacing" textLength="126" x="168.8868" y="654.6082">Manage Quiz Tags</text></g><g id="elem_UC_AddQuestions"><ellipse cx="564.879" cy="335.8737" fill="#F1F1F1" rx="98.379" ry="22.0758" style="stroke:#181818;stroke-width:0.5;"/><text fill="#000000" font-family="sans-serif" font-size="14" lengthAdjust="spacing" textLength="151" x="486.379" y="340.6067">Add Questions to Quiz</text></g><g id="elem_UC_AddSmart"><ellipse cx="836.1156" cy="227.621" fill="#F1F1F1" rx="102.1156" ry="22.8231" style="stroke:#181818;stroke-width:0.5;"/><text fill="#000000" font-family="sans-serif" font-size="14" lengthAdjust="spacing" textLength="160" x="753.1156" y="232.354">Add Questions 'Smartly'</text></g><g id="elem_UC_EditLive"><ellipse cx="235.2128" cy="213.8405" fill="#F1F1F1" rx="75.7128" ry="17.5426" style="stroke:#181818;stroke-width:0.5;"/><text fill="#000000" font-family="sans-serif" font-size="14" lengthAdjust="spacing" textLength="91" x="186.7128" y="218.5734">Edit Live Quiz</text></g><g id="elem_UC_GrantTime"><ellipse cx="234.9683" cy="285.8916" fill="#F1F1F1" rx="83.4683" ry="19.0937" style="stroke:#181818;stroke-width:0.5;"/><text fill="#000000" font-family="sans-serif" font-size="14" lengthAdjust="spacing" textLength="113" x="175.4683" y="290.6246">Grant Extra Time</text></g><g id="elem_UC_ImportQuiz"><ellipse cx="234.9462" cy="437.8315" fill="#F1F1F1" rx="71.4462" ry="17.0336" style="stroke:#181818;stroke-width:0.5;"/><text fill="#000000" font-family="sans-serif" font-size="14" lengthAdjust="spacing" textLength="81" x="191.4462" y="442.5645">Import Quiz</text></g><g id="elem_UC_ExportQuiz"><ellipse cx="235.1768" cy="506.8185" fill="#F1F1F1" rx="69.1768" ry="17.0206" style="stroke:#181818;stroke-width:0.5;"/><text fill="#000000" font-family="sans-serif" font-size="14" lengthAdjust="spacing" textLength="78" x="193.1768" y="511.5515">Export Quiz</text></g><g id="elem_UC_ViewQuiz"><ellipse cx="235.221" cy="576.6421" fill="#F1F1F1" rx="74.721" ry="17.3442" style="stroke:#181818;stroke-width:0.5;"/><text fill="#000000" font-family="sans-serif" font-size="14" lengthAdjust="spacing" textLength="88" x="188.221" y="581.3751">View Quizzes</text></g><!--entity Professor--><g id="elem_Professor"><ellipse cx="37.5" cy="182.7979" fill="#F1F1F1" rx="8" ry="8" style="stroke:#181818;stroke-width:0.5;"/><path d="M37.5,190.7979 L37.5,217.7979 M24.5,198.7979 L50.5,198.7979 M37.5,217.7979 L24.5,232.7979 M37.5,217.7979 L50.5,232.7979 " fill="none" style="stroke:#181818;stroke-width:0.5;"/><text fill="#000000" font-family="sans-serif" font-size="14" lengthAdjust="spacing" textLength="63" x="6" y="249.2639">Professor</text></g><!--entity Manager--><g id="elem_Manager"><ellipse cx="37.5" cy="509.7979" fill="#F1F1F1" rx="8" ry="8" style="stroke:#181818;stroke-width:0.5;"/><path d="M37.5,517.7979 L37.5,544.7979 M24.5,525.7979 L50.5,525.7979 M37.5,544.7979 L24.5,559.7979 M37.5,544.7979 L50.5,559.7979 " fill="none" style="stroke:#181818;stroke-width:0.5;"/><text fill="#000000" font-family="sans-serif" font-size="14" lengthAdjust="spacing" textLength="61" x="7" y="576.2639">Manager</text></g><!--entity System--><g id="elem_System"><ellipse cx="836" cy="71.7979" fill="#F1F1F1" rx="8" ry="8" style="stroke:#181818;stroke-width:0.5;"/><path d="M836,79.7979 L836,106.7979 M823,87.7979 L849,87.7979 M836,106.7979 L823,121.7979 M836,106.7979 L849,121.7979 " fill="none" style="stroke:#181818;stroke-width:0.5;"/><text fill="#000000" font-family="sans-serif" font-size="14" lengthAdjust="spacing" textLength="48" x="812" y="138.2639">System</text></g><g id="elem_GMN29"><path d="M745,702.2979 L745,747.7099 L927,747.7099 L927,712.2979 L917,702.2979 L745,702.2979 " fill="#FEFFDD" style="stroke:#181818;stroke-width:0.5;"/><path d="M917,702.2979 L917,712.2979 L927,712.2979 L917,702.2979 " fill="#FEFFDD" style="stroke:#181818;stroke-width:1.0;"/><text fill="#000000" font-family="sans-serif" font-size="13" lengthAdjust="spacing" textLength="158" x="751" y="721.1949">Can add questions directly</text><text fill="#000000" font-family="sans-serif" font-size="13" lengthAdjust="spacing" textLength="145" x="751" y="738.9009">or from Question Banks.</text></g><g id="elem_GMN32"><path d="M457,96.2979 L457,141.7099 A0,0 0 0 0 457,141.7099 L561,141.7099 L565,195.7479 L569,141.7099 L673,141.7099 A0,0 0 0 0 673,141.7099 L673,106.2979 L663,96.2979 L457,96.2979 A0,0 0 0 0 457,96.2979 " fill="#FEFFDD" style="stroke:#181818;stroke-width:0.5;"/><path d="M663,96.2979 L663,106.2979 L673,106.2979 L663,96.2979 " fill="#FEFFDD" style="stroke:#181818;stroke-width:0.5;"/><text fill="#000000" font-family="sans-serif" font-size="13" lengthAdjust="spacing" textLength="192" x="463" y="115.1949">Includes setting time, password,</text><text fill="#000000" font-family="sans-serif" font-size="13" lengthAdjust="spacing" textLength="143" x="463" y="132.9009">shuffling, calculator, etc.</text></g><!--link Professor to UC_ManageQuiz--><g id="link_Professor_UC_ManageQuiz"><path d="M55.62,253.4079 C67.35,276.3179 84.96,304.0279 108,321.7979 C122.67,333.1079 140.57,341.3579 158.22,347.3479 " fill="none" id="Professor-UC_ManageQuiz" style="stroke:#181818;stroke-width:1.0;"/></g><!--link Professor to UC_ConfigQuiz--><g id="link_Professor_UC_ConfigQuiz"><path d="M52.31,174.0479 C61.9,152.9979 76.96,129.0279 99,116.7979 C226.47,46.0679 297.38,50.0879 427,116.7979 C447.4,127.2979 439.92,143.4879 457,158.7979 C474.76,174.7179 497.46,188.1979 517.38,198.3179 " fill="none" id="Professor-UC_ConfigQuiz" style="stroke:#181818;stroke-width:1.0;"/></g><!--link Professor to UC_AddQuestions--><g id="link_Professor_UC_AddQuestions"><path d="M69.14,194.4979 C80.84,188.1879 94.59,181.9879 108,178.7979 C207.45,155.1679 240.45,148.2379 338,178.7979 C349.17,182.2979 475.71,272.4679 534.42,314.5479 " fill="none" id="Professor-UC_AddQuestions" style="stroke:#181818;stroke-width:1.0;"/></g><!--link Professor to UC_EditLive--><g id="link_Professor_UC_EditLive"><path d="M69.05,213.7979 C93.21,213.7979 127.99,213.7979 159.39,213.7979 " fill="none" id="Professor-UC_EditLive" style="stroke:#181818;stroke-width:1.0;"/></g><!--link Professor to UC_GrantTime--><g id="link_Professor_UC_GrantTime"><path d="M69.09,230.7079 C81.01,236.8979 94.93,243.6379 108,248.7979 C130.58,257.7179 156.18,265.6179 178.38,271.8079 " fill="none" id="Professor-UC_GrantTime" style="stroke:#181818;stroke-width:1.0;"/></g><!--link Manager to UC_ManageTags--><g id="link_Manager_UC_ManageTags"><path d="M68.03,577.8079 C79.41,590.0779 93.25,602.8679 108,611.7979 C126.18,622.8079 147.77,630.8279 167.91,636.5879 " fill="none" id="Manager-UC_ManageTags" style="stroke:#181818;stroke-width:1.0;"/></g><!--link Manager to UC_ImportQuiz--><g id="link_Manager_UC_ImportQuiz"><path d="M68.06,504.6179 C79.44,492.6679 93.27,480.2879 108,471.7979 C128.42,460.0379 153.04,452.2179 175.08,447.0779 " fill="none" id="Manager-UC_ImportQuiz" style="stroke:#181818;stroke-width:1.0;"/></g><!--link Manager to UC_ExportQuiz--><g id="link_Manager_UC_ExportQuiz"><path d="M68.19,535.6379 C97.25,530.5779 142.23,522.7579 178.01,516.5379 " fill="none" id="Manager-UC_ExportQuiz" style="stroke:#181818;stroke-width:1.0;"/></g><!--link Manager to UC_ViewQuiz--><g id="link_Manager_UC_ViewQuiz"><path d="M68.19,546.2679 C96.61,551.4979 140.25,559.5379 175.63,566.0479 " fill="none" id="Manager-UC_ViewQuiz" style="stroke:#181818;stroke-width:1.0;"/></g><!--reverse link UC_AddQuestions to UC_AddSmart--><g id="link_UC_AddQuestions_UC_AddSmart"><path d="M630.4835,309.9102 C678.6435,290.5702 735.97,267.5579 784.93,247.8979 " fill="none" id="UC_AddQuestions-backto-UC_AddSmart" style="stroke:#181818;stroke-width:1.0;"/><polygon fill="none" points="613.78,316.6179,632.7194,315.478,628.2476,304.3423,613.78,316.6179" style="stroke:#181818;stroke-width:1.0;"/></g><!--link UC_AddSmart to System--><g id="link_UC_AddSmart_System"><path d="M836,204.5779 C836,187.2079 836,169.0379 836,148.6079 " fill="none" id="UC_AddSmart-to-System" style="stroke:#181818;stroke-width:1.0;stroke-dasharray:7.0,7.0;"/><polygon fill="#181818" points="836,142.6079,832,151.6079,836,147.6079,840,151.6079,836,142.6079" style="stroke:#181818;stroke-width:1.0;"/><text fill="#000000" font-family="sans-serif" font-size="13" lengthAdjust="spacing" textLength="128" x="759.5" y="178.9449">(Uses algorithm/bias)</text></g><!--link UC_ManageQuiz to UC_ConfigQuiz--><g id="link_UC_ManageQuiz_UC_ConfigQuiz"><path d="M287.03,342.8079 C303.38,336.2679 321.51,328.8679 338,321.7979 C401.81,294.4479 469.3162,263.3022 514.6562,242.0722 " fill="none" id="UC_ManageQuiz-to-UC_ConfigQuiz" style="stroke:#181818;stroke-width:1.0;stroke-dasharray:7.0,7.0;"/><polygon fill="#181818" points="520.09,239.5279,510.2431,239.7219,515.5618,241.6482,513.6355,246.967,520.09,239.5279" style="stroke:#181818;stroke-width:1.0;"/><text fill="#000000" font-family="sans-serif" font-size="13" lengthAdjust="spacing" textLength="57" x="369" y="279.6949">&#171;include&#187;</text></g><!--link UC_ManageQuiz to UC_AddQuestions--><g id="link_UC_ManageQuiz_UC_AddQuestions"><path d="M332.19,354.8779 C376.43,351.2379 422.6702,347.4295 466.3402,343.8395 " fill="none" id="UC_ManageQuiz-to-UC_AddQuestions" style="stroke:#181818;stroke-width:1.0;stroke-dasharray:7.0,7.0;"/><polygon fill="#181818" points="472.32,343.3479,463.0225,340.0987,467.3368,343.7576,463.678,348.0718,472.32,343.3479" style="stroke:#181818;stroke-width:1.0;"/><text fill="#000000" font-family="sans-serif" font-size="13" lengthAdjust="spacing" textLength="57" x="369" y="343.6949">&#171;include&#187;</text></g><!--link UC_AddQuestions to GMN29--><g id="link_UC_AddQuestions_GMN29"><path d="M570.64,358.0679 C584.48,419.0679 631.03,590.6579 734,685.7979 C740.97,692.2379 749.12,697.6579 757.72,702.2079 " fill="none" id="UC_AddQuestions-GMN29" style="stroke:#181818;stroke-width:1.0;stroke-dasharray:7.0,7.0;"/></g><!--SRC=[VLJ1Rjim3BtxAuWSbXP8idiH15YTO2Ym3LlJx5HWO6tQ4MPBgIIdIRVz-oWhTYIdsoM8-TwZg4TILjYAOBN7IXH7cCB64AJ8Fqk1fSRw1huruXLIJMY5al0EKYKBKJQw_KwIYWeBLe4MvTP2BZHb7i3CAWrVjIh86ALFtvzHOadTr_feBDL9uaGeIwvazD_ZHl0h0MWCPQx4aK_MLlXA1gxI-ytoUWHeO9F-yA33GacNpgjWJTOAMPfEvE6XA3W77l3Czd4N2TaVyfofP5p1nbdZT9s4mHxxjsYyhb7RwZWEP6qebAnoOU6Js5DqW8kwOCZyg55QM1siHdWGDNNSDku28VcktYbjevm-D7HbTRWW-j2G-5tGIzUaZkbYhP_9doJfXmIcqq7hXb3Ge24KMJi4Eri0Bg2p2ybfEgCoslR6GE1730Jt7tUZ3dJOLIBZFJj2JTALHpdi-VuyUF1ycjs2ox5R4Xgo2itmmDujBl-SkCOZO6KKx4YplWxlEObknelzXIWtS7k_XBH2BGgH-GK-fukDkW02cmPcm_nttm4_fS5_c2rEQmutSCNFY-6QIwM5tTRldmIQwpRVkUKmOqNKQHREvq9cLPFJOl4sEwedvYTIMJgzJwfuWvoY1EJzU-vZ_XdZXZrAxakXLTql9zoY_6bcFkcJifOndpKg-CuVRy3u5mOiEpU17VVsHUbymfdDjYcAYh49P5XbJONy94w0R3PB_W80]--></g></svg>