<?xml version="1.0" encoding="us-ascii" standalone="no"?><svg xmlns="http://www.w3.org/2000/svg" xmlns:xlink="http://www.w3.org/1999/xlink" contentStyleType="text/css" height="805px" preserveAspectRatio="none" style="width:389px;height:805px;background:#FFFFFF;" version="1.1" viewBox="0 0 389 805" width="389px" zoomAndPan="magnify"><defs/><g><text fill="#000000" font-family="sans-serif" font-size="14" font-weight="bold" lengthAdjust="spacing" textLength="342" x="16.5" y="24.9659">Evalify - Use Case Diagram: Reporting &amp; Analytics</text><!--cluster Reporting & Analytics--><g id="cluster_Reporting &amp; Analytics"><rect fill="none" height="582" rx="2.5" ry="2.5" style="stroke:#181818;stroke-width:1.0;" width="270" x="113" y="216.0679"/><text fill="#000000" font-family="sans-serif" font-size="14" font-weight="bold" lengthAdjust="spacing" textLength="151" x="172.5" y="233.0339">Reporting &amp; Analytics</text></g><g id="elem_UC_ViewStudentDash"><ellipse cx="247.9395" cy="280.2558" fill="#F1F1F1" rx="118.9395" ry="26.1879" style="stroke:#181818;stroke-width:0.5;"/><text fill="#000000" font-family="sans-serif" font-size="14" lengthAdjust="spacing" textLength="199" x="145.8582" y="284.8303">View Performance Dashboard</text></g><g id="elem_UC_ViewProfReport"><ellipse cx="247.8505" cy="437.838" fill="#F1F1F1" rx="86.8505" ry="19.7701" style="stroke:#181818;stroke-width:0.5;"/><text fill="#000000" font-family="sans-serif" font-size="14" lengthAdjust="spacing" textLength="122" x="183.8505" y="442.571">View Quiz Reports</text></g><g id="elem_UC_ExportProfReport"><ellipse cx="248.015" cy="362.2709" fill="#F1F1F1" rx="91.515" ry="20.703" style="stroke:#181818;stroke-width:0.5;"/><text fill="#000000" font-family="sans-serif" font-size="14" lengthAdjust="spacing" textLength="134" x="178.015" y="367.0039">Export Quiz Reports</text></g><g id="elem_UC_ViewMgrReport"><ellipse cx="247.7649" cy="516.8209" fill="#F1F1F1" rx="106.7649" ry="23.753" style="stroke:#181818;stroke-width:0.5;"/><text fill="#000000" font-family="sans-serif" font-size="14" lengthAdjust="spacing" textLength="171" x="159.2649" y="521.5539">View Aggregated Reports</text></g><g id="elem_UC_ExportMgrReport"><ellipse cx="247.9273" cy="679.8534" fill="#F1F1F1" rx="111.9273" ry="24.7855" style="stroke:#181818;stroke-width:0.5;"/><text fill="#000000" font-family="sans-serif" font-size="14" lengthAdjust="spacing" textLength="183" x="153.4273" y="684.5863">Export Aggregated Reports</text></g><g id="elem_UC_ViewViolationReport"><ellipse cx="248.0577" cy="597.9795" fill="#F1F1F1" rx="97.5577" ry="21.9115" style="stroke:#181818;stroke-width:0.5;"/><text fill="#000000" font-family="sans-serif" font-size="14" lengthAdjust="spacing" textLength="149" x="170.5577" y="602.7124">View Violation Reports</text></g><g id="elem_UC_AccessLogs"><ellipse cx="248.2263" cy="761.1132" fill="#F1F1F1" rx="90.7263" ry="20.5453" style="stroke:#181818;stroke-width:0.5;"/><text fill="#000000" font-family="sans-serif" font-size="14" lengthAdjust="spacing" textLength="132" x="179.2263" y="765.8461">Access System Logs</text></g><!--entity Student--><g id="elem_Student"><ellipse cx="37.5" cy="249.0679" fill="#F1F1F1" rx="8" ry="8" style="stroke:#181818;stroke-width:0.5;"/><path d="M37.5,257.0679 L37.5,284.0679 M24.5,265.0679 L50.5,265.0679 M37.5,284.0679 L24.5,299.0679 M37.5,284.0679 L50.5,299.0679 " fill="none" style="stroke:#181818;stroke-width:0.5;"/><text fill="#000000" font-family="sans-serif" font-size="14" lengthAdjust="spacing" textLength="53" x="11" y="315.5339">Student</text></g><!--entity Professor--><g id="elem_Professor"><ellipse cx="37.5" cy="385.0679" fill="#F1F1F1" rx="8" ry="8" style="stroke:#181818;stroke-width:0.5;"/><path d="M37.5,393.0679 L37.5,420.0679 M24.5,401.0679 L50.5,401.0679 M37.5,420.0679 L24.5,435.0679 M37.5,420.0679 L50.5,435.0679 " fill="none" style="stroke:#181818;stroke-width:0.5;"/><text fill="#000000" font-family="sans-serif" font-size="14" lengthAdjust="spacing" textLength="63" x="6" y="451.5339">Professor</text></g><!--entity Manager--><g id="elem_Manager"><ellipse cx="37.5" cy="567.0679" fill="#F1F1F1" rx="8" ry="8" style="stroke:#181818;stroke-width:0.5;"/><path d="M37.5,575.0679 L37.5,602.0679 M24.5,583.0679 L50.5,583.0679 M37.5,602.0679 L24.5,617.0679 M37.5,602.0679 L50.5,617.0679 " fill="none" style="stroke:#181818;stroke-width:0.5;"/><text fill="#000000" font-family="sans-serif" font-size="14" lengthAdjust="spacing" textLength="61" x="7" y="633.5339">Manager</text></g><!--entity Admin--><g id="elem_Admin"><ellipse cx="37.5" cy="730.0679" fill="#F1F1F1" rx="8" ry="8" style="stroke:#181818;stroke-width:0.5;"/><path d="M37.5,738.0679 L37.5,765.0679 M24.5,746.0679 L50.5,746.0679 M37.5,765.0679 L24.5,780.0679 M37.5,765.0679 L50.5,780.0679 " fill="none" style="stroke:#181818;stroke-width:0.5;"/><text fill="#000000" font-family="sans-serif" font-size="14" lengthAdjust="spacing" textLength="44" x="15.5" y="796.5339">Admin</text></g><g id="elem_GMN21"><path d="M137.5,172.0679 L137.5,199.7739 A0,0 0 0 0 137.5,199.7739 L244,199.7739 L248,253.9979 L252,199.7739 L358.5,199.7739 A0,0 0 0 0 358.5,199.7739 L358.5,182.0679 L348.5,172.0679 L137.5,172.0679 A0,0 0 0 0 137.5,172.0679 " fill="#FEFFDD" style="stroke:#181818;stroke-width:0.5;"/><path d="M348.5,172.0679 L348.5,182.0679 L358.5,182.0679 L348.5,172.0679 " fill="#FEFFDD" style="stroke:#181818;stroke-width:0.5;"/><text fill="#000000" font-family="sans-serif" font-size="13" lengthAdjust="spacing" textLength="200" x="143.5" y="190.9649">Shows trends, anonymized ranks.</text></g><g id="elem_GMN24"><path d="M162,109.0679 L162,136.7739 L334,136.7739 L334,119.0679 L324,109.0679 L162,109.0679 " fill="#FEFFDD" style="stroke:#181818;stroke-width:0.5;"/><path d="M324,109.0679 L324,119.0679 L334,119.0679 L324,109.0679 " fill="#FEFFDD" style="stroke:#181818;stroke-width:1.0;"/><text fill="#000000" font-family="sans-serif" font-size="13" lengthAdjust="spacing" textLength="151" x="168" y="127.9649">Class/Course wise details.</text></g><g id="elem_GMN27"><path d="M148.5,46.0679 L148.5,73.7739 L347.5,73.7739 L347.5,56.0679 L337.5,46.0679 L148.5,46.0679 " fill="#FEFFDD" style="stroke:#181818;stroke-width:0.5;"/><path d="M337.5,46.0679 L337.5,56.0679 L347.5,56.0679 L337.5,46.0679 " fill="#FEFFDD" style="stroke:#181818;stroke-width:1.0;"/><text fill="#000000" font-family="sans-serif" font-size="13" lengthAdjust="spacing" textLength="178" x="154.5" y="64.9649">Class/Course wise summaries.</text></g><!--link Student to UC_ViewStudentDash--><g id="link_Student_UC_ViewStudentDash"><path d="M64.07,280.0679 C80.92,280.0679 104.34,280.0679 128.8,280.0679 " fill="none" id="Student-UC_ViewStudentDash" style="stroke:#181818;stroke-width:1.0;"/></g><!--link Professor to UC_ViewProfReport--><g id="link_Professor_UC_ViewProfReport"><path d="M69.26,419.3179 C95.32,422.0679 133.83,426.1279 168.35,429.7679 " fill="none" id="Professor-UC_ViewProfReport" style="stroke:#181818;stroke-width:1.0;"/></g><!--link Professor to UC_ExportProfReport--><g id="link_Professor_UC_ExportProfReport"><path d="M69.26,408.0979 C100.19,400.0879 148.67,387.5379 187.19,377.5579 " fill="none" id="Professor-UC_ExportProfReport" style="stroke:#181818;stroke-width:1.0;"/></g><!--link Manager to UC_ViewMgrReport--><g id="link_Manager_UC_ViewMgrReport"><path d="M68.07,578.0179 C79.29,571.0279 92.4,563.5579 105,558.0679 C126.64,548.6279 151.06,540.6779 173.48,534.3679 " fill="none" id="Manager-UC_ViewMgrReport" style="stroke:#181818;stroke-width:1.0;"/></g><!--link Manager to UC_ExportMgrReport--><g id="link_Manager_UC_ExportMgrReport"><path d="M68.16,617.4879 C79.39,624.2979 92.49,631.5979 105,637.0679 C126.59,646.5079 150.89,654.6979 173.2,661.3179 " fill="none" id="Manager-UC_ExportMgrReport" style="stroke:#181818;stroke-width:1.0;"/></g><!--link Manager to UC_ViewViolationReport--><g id="link_Manager_UC_ViewViolationReport"><path d="M68.37,598.0679 C89.99,598.0679 120.52,598.0679 150.23,598.0679 " fill="none" id="Manager-UC_ViewViolationReport" style="stroke:#181818;stroke-width:1.0;"/></g><!--link Admin to UC_AccessLogs--><g id="link_Admin_UC_AccessLogs"><path d="M59.64,761.0679 C82.73,761.0679 121.24,761.0679 157.37,761.0679 " fill="none" id="Admin-UC_AccessLogs" style="stroke:#181818;stroke-width:1.0;"/></g><!--link UC_ViewProfReport to GMN24--><g id="link_UC_ViewProfReport_GMN24"><path d="M162.98,433.7379 C131.16,426.9879 99.66,412.5279 87,382.5679 C68.75,339.3779 68.75,214.7579 87,171.5679 C99.38,142.2579 130.41,129.1179 161.96,123.6879 " fill="none" id="UC_ViewProfReport-GMN24" style="stroke:#181818;stroke-width:1.0;stroke-dasharray:7.0,7.0;"/></g><!--link UC_ViewMgrReport to GMN27--><g id="link_UC_ViewMgrReport_GMN27"><path d="M150.56,507.1479 C123.29,498.7179 98.08,483.7779 87,457.5679 C71.91,421.8479 71.91,144.2879 87,108.5679 C97.57,83.5579 121.7,70.3179 148.16,63.5979 " fill="none" id="UC_ViewMgrReport-GMN27" style="stroke:#181818;stroke-width:1.0;stroke-dasharray:7.0,7.0;"/></g><!--SRC=[TP9DJyCm38Rl-HLM3vmOt7URocvC6apR5NcjcqMqCKfSneRuxwHhwSgQNYBvux7zsX4Z9S7o4qjJd606Mq-GOdYU36g7rHnUwOET6AlX3XOMovEOp2jLKY4W3CxeWq1k76LYs2g5cR23ZTGvMUcijUE2l6VNsIkqgEdFMkIL2M1J0QqEuoJHdWbyAu3QKzRCb-mC7M5Dhc1NeSt2nEWFUqQN9u0UjkbRaz7DqSH6y4jjpfqyFsIQQLlt45b-DPuer8RYsANJGcj76eNoMB-LTfFjfias8SfUUkuCbzYS9DQo3uxXHPQ5Ky7cv8KgU6RTWssayQWVfRhDmcmMsxNgJpv866peDZnQeUh-o02_QlqVkzt4cBoLgovVhaiOo5AMXM3F8bm15n5XC8VDWOyUn97D_JsWPNkgp3aSoA5zzmyJDQxIGecqHEyVKwvTsFZHX2SdGLDEqhsuAEphga9dAE2_]--></g></svg>